<?xml version="1.0" encoding="utf-8"?>
<svg xmlns="http://www.w3.org/2000/svg" version="1.1" width="1000" height="800">

<circle cx="350" cy="0" r="5" fill="blue" />
<text x="350" y="-5" fill="black" >Porte_Clichy</text>
<circle cx="140" cy="70" r="5" fill="green" />
<text x="140" y="65" fill="black" >Pereire</text>
<circle cx="0" cy="210" r="5" fill="green" />
<text x="0" y="205" fill="black" >Avenue_Foch</text>
<circle cx="0" cy="420" r="5" fill="green" />
<text x="0" y="415" fill="black" >Avenue_Henri_Martin</text>
<circle cx="70" cy="560" r="5" fill="green" />
<text x="70" y="555" fill="black" >Avenue_Pdt_Kennedy</text>
<circle cx="210" cy="560" r="5" fill="red" />
<text x="210" y="555" fill="black" >Tour_Eiffel</text>
<circle cx="210" cy="840" r="5" fill="blue" />
<text x="210" y="835" fill="black" >Pont_Garigliano</text>
<circle cx="350" cy="420" r="5" fill="green" />
<text x="350" y="415" fill="black" >Invalides</text>
<circle cx="210" cy="210" r="5" fill="blue" />
<text x="210" y="205" fill="black" >CdG_Etoile</text>
<circle cx="350" cy="210" r="5" fill="red" />
<text x="350" y="205" fill="black" >Saint-Lazare</text>
<circle cx="700" cy="840" r="5" fill="blue" />
<text x="700" y="835" fill="black" >Denfert</text>
<circle cx="700" cy="560" r="5" fill="purple" />
<text x="700" y="555" fill="black" >Notre-Dame</text>
<circle cx="770" cy="420" r="5" fill="black" />
<text x="770" y="415" fill="black" >Chatelet</text>
<circle cx="770" cy="70" r="5" fill="green" />
<text x="770" y="65" fill="black" >Gare_du_Nord</text>
<circle cx="840" cy="140" r="5" fill="blue" />
<text x="840" y="135" fill="black" >Magenta</text>
<circle cx="910" cy="630" r="5" fill="red" />
<text x="910" y="625" fill="black" >Gare_de_Lyon</text>
<circle cx="980" cy="840" r="5" fill="blue" />
<text x="980" y="835" fill="black" >Bibliotheque_F_Mitterrand</text>
<circle cx="1260" cy="560" r="5" fill="blue" />
<text x="1260" y="555" fill="black" >Nation</text>
<line x1="350" y1="0" x2="140" y2="70" stroke="black" />
<text x="250" y="30" fill="black" >1</text>
<line x1="140" y1="70" x2="0" y2="210" stroke="black" />
<text x="75" y="135" fill="black" >1</text>
<line x1="0" y1="210" x2="0" y2="420" stroke="black" />
<text x="5" y="310" fill="black" >1</text>
<line x1="0" y1="420" x2="70" y2="560" stroke="black" />
<text x="40" y="485" fill="black" >1</text>
<line x1="70" y1="560" x2="210" y2="560" stroke="black" />
<text x="145" y="555" fill="black" >1</text>
<line x1="210" y1="560" x2="210" y2="840" stroke="black" />
<text x="215" y="695" fill="black" >1</text>
<line x1="210" y1="560" x2="350" y2="420" stroke="black" />
<text x="285" y="485" fill="black" >1</text>
<line x1="350" y1="420" x2="700" y2="560" stroke="black" />
<text x="530" y="485" fill="black" >1</text>
<line x1="700" y1="560" x2="980" y2="840" stroke="black" />
<text x="845" y="695" fill="black" >1</text>
<line x1="210" y1="210" x2="350" y2="210" stroke="black" />
<text x="285" y="205" fill="black" >1</text>
<line x1="350" y1="210" x2="770" y2="420" stroke="black" />
<text x="565" y="310" fill="black" >1</text>
<line x1="770" y1="420" x2="910" y2="630" stroke="black" />
<text x="845" y="520" fill="black" >1</text>
<line x1="910" y1="630" x2="1260" y2="560" stroke="black" />
<text x="1090" y="590" fill="black" >1</text>
<line x1="770" y1="70" x2="770" y2="420" stroke="black" />
<text x="775" y="240" fill="black" >1</text>
<line x1="770" y1="70" x2="770" y2="420" stroke="black" />
<text x="775" y="240" fill="black" >1</text>
<line x1="770" y1="420" x2="910" y2="630" stroke="black" />
<text x="845" y="520" fill="black" >1</text>
<line x1="770" y1="420" x2="700" y2="560" stroke="black" />
<text x="740" y="485" fill="black" >1</text>
<line x1="700" y1="560" x2="700" y2="840" stroke="black" />
<text x="705" y="695" fill="black" >1</text>
<line x1="350" y1="210" x2="840" y2="140" stroke="black" />
<text x="600" y="170" fill="black" >1</text>


</svg>
