<?xml version="1.0" encoding="utf-8"?>
<svg xmlns="http://www.w3.org/2000/svg" version="1.1" width="1000" height="800">

<circle cx="210" cy="70" r="5" fill="black" />
<text x="210" y="65" fill="black" >A</text>
<circle cx="140" cy="140" r="5" fill="black" />
<text x="140" y="135" fill="black" >B</text>
<circle cx="280" cy="140" r="5" fill="black" />
<text x="280" y="135" fill="black" >C</text>
<circle cx="210" cy="210" r="5" fill="black" />
<text x="210" y="205" fill="black" >D</text>
<circle cx="140" cy="280" r="5" fill="black" />
<text x="140" y="275" fill="black" >E</text>
<circle cx="210" cy="280" r="5" fill="black" />
<text x="210" y="275" fill="black" >F</text>
<circle cx="280" cy="280" r="5" fill="black" />
<text x="280" y="275" fill="black" >G</text>
<circle cx="70" cy="350" r="5" fill="black" />
<text x="70" y="345" fill="black" >H</text>
<circle cx="350" cy="350" r="5" fill="black" />
<text x="350" y="345" fill="black" >I</text>
<line x1="210" y1="70" x2="140" y2="140" stroke="black" />
<line x1="143" y1="137" x2="166" y2="124" stroke="black" />
<line x1="143" y1="137" x2="156" y2="114" stroke="black" />
<text x="175" y="105" fill="black" >1</text>
<line x1="210" y1="70" x2="280" y2="140" stroke="black" />
<line x1="277" y1="137" x2="254" y2="124" stroke="black" />
<line x1="277" y1="137" x2="264" y2="114" stroke="black" />
<text x="245" y="105" fill="black" >1</text>
<line x1="140" y1="140" x2="210" y2="210" stroke="black" />
<line x1="207" y1="207" x2="184" y2="194" stroke="black" />
<line x1="207" y1="207" x2="194" y2="184" stroke="black" />
<text x="175" y="175" fill="black" >1</text>
<line x1="280" y1="140" x2="210" y2="210" stroke="black" />
<line x1="213" y1="207" x2="236" y2="194" stroke="black" />
<line x1="213" y1="207" x2="226" y2="184" stroke="black" />
<text x="245" y="175" fill="black" >1</text>
<line x1="210" y1="210" x2="140" y2="280" stroke="black" />
<line x1="143" y1="277" x2="166" y2="264" stroke="black" />
<line x1="143" y1="277" x2="156" y2="254" stroke="black" />
<text x="175" y="245" fill="black" >1</text>
<line x1="210" y1="210" x2="280" y2="280" stroke="black" />
<line x1="277" y1="277" x2="254" y2="264" stroke="black" />
<line x1="277" y1="277" x2="264" y2="254" stroke="black" />
<text x="245" y="245" fill="black" >1</text>
<line x1="140" y1="140" x2="70" y2="350" stroke="black" />
<line x1="71" y1="346" x2="85" y2="324" stroke="black" />
<line x1="71" y1="346" x2="73" y2="320" stroke="black" />
<text x="105" y="245" fill="black" >1</text>
<line x1="280" y1="140" x2="350" y2="350" stroke="black" />
<line x1="349" y1="346" x2="335" y2="324" stroke="black" />
<line x1="349" y1="346" x2="347" y2="320" stroke="black" />
<text x="315" y="245" fill="black" >1</text>
<line x1="140" y1="280" x2="210" y2="280" stroke="black" />
<line x1="205" y1="280" x2="180" y2="288" stroke="black" />
<line x1="205" y1="280" x2="180" y2="272" stroke="black" />
<text x="175" y="280" fill="black" >1</text>
<line x1="210" y1="280" x2="280" y2="280" stroke="black" />
<line x1="275" y1="280" x2="250" y2="288" stroke="black" />
<line x1="275" y1="280" x2="250" y2="272" stroke="black" />
<text x="245" y="280" fill="black" >1</text>
<line x1="280" y1="280" x2="350" y2="350" stroke="black" />
<line x1="347" y1="347" x2="324" y2="334" stroke="black" />
<line x1="347" y1="347" x2="334" y2="324" stroke="black" />
<text x="315" y="315" fill="black" >1</text>
<line x1="140" y1="280" x2="70" y2="350" stroke="black" />
<line x1="73" y1="347" x2="96" y2="334" stroke="black" />
<line x1="73" y1="347" x2="86" y2="324" stroke="black" />
<text x="105" y="315" fill="black" >1</text>


</svg>
