<?xml version="1.0" encoding="utf-8"?>
<svg xmlns="http://www.w3.org/2000/svg" version="1.1" width="1000" height="800">

<circle cx="350" cy="280" r="5" fill="purple" />
<text x="350" y="275" fill="black" >Rennes</text>
<circle cx="280" cy="210" r="5" fill="red" />
<text x="280" y="205" fill="black" >SaintMalo</text>
<circle cx="210" cy="350" r="5" fill="red" />
<text x="210" y="345" fill="black" >Vannes</text>
<circle cx="140" cy="350" r="5" fill="green" />
<text x="140" y="345" fill="black" >Lorient</text>
<circle cx="70" cy="210" r="5" fill="green" />
<text x="70" y="205" fill="black" >Brest</text>
<circle cx="350" cy="420" r="5" fill="red" />
<text x="350" y="415" fill="black" >Nantes</text>
<circle cx="420" cy="350" r="5" fill="red" />
<text x="420" y="345" fill="black" >Anger</text>
<circle cx="490" cy="280" r="5" fill="black" />
<text x="490" y="275" fill="black" >LeMans</text>
<circle cx="770" cy="210" r="5" fill="red" />
<text x="770" y="205" fill="black" >Paris</text>
<circle cx="420" cy="140" r="5" fill="purple" />
<text x="420" y="135" fill="black" >Caen</text>
<circle cx="350" cy="70" r="5" fill="blue" />
<text x="350" y="65" fill="black" >Cherbourg</text>
<circle cx="560" cy="420" r="5" fill="red" />
<text x="560" y="415" fill="black" >Tours</text>
<circle cx="700" cy="350" r="5" fill="green" />
<text x="700" y="345" fill="black" >Orleans</text>
<circle cx="490" cy="70" r="5" fill="green" />
<text x="490" y="65" fill="black" >LeHavre</text>
<line x1="70" y1="210" x2="280" y2="210" stroke="black" />
<text x="180" y="205" fill="black" >234</text>
<line x1="350" y1="280" x2="280" y2="210" stroke="black" />
<text x="320" y="240" fill="black" >70</text>
<line x1="350" y1="280" x2="210" y2="350" stroke="black" />
<text x="285" y="310" fill="black" >111</text>
<line x1="210" y1="350" x2="140" y2="350" stroke="black" />
<text x="180" y="345" fill="black" >57</text>
<line x1="280" y1="210" x2="420" y2="140" stroke="black" />
<text x="355" y="170" fill="black" >171</text>
<line x1="420" y1="140" x2="350" y2="70" stroke="black" />
<text x="390" y="100" fill="black" >122</text>
<line x1="420" y1="140" x2="490" y2="70" stroke="black" />
<text x="460" y="100" fill="black" >94</text>
<line x1="490" y1="70" x2="770" y2="210" stroke="black" />
<text x="635" y="135" fill="black" >196</text>
<line x1="770" y1="210" x2="490" y2="280" stroke="black" />
<text x="635" y="240" fill="black" >208</text>
<line x1="770" y1="210" x2="700" y2="350" stroke="black" />
<text x="740" y="275" fill="black" >135</text>
<line x1="700" y1="350" x2="560" y2="420" stroke="black" />
<text x="635" y="380" fill="black" >116</text>
<line x1="560" y1="420" x2="490" y2="280" stroke="black" />
<text x="530" y="345" fill="black" >98</text>
<line x1="420" y1="140" x2="490" y2="280" stroke="black" />
<text x="460" y="205" fill="black" >158</text>
<line x1="490" y1="280" x2="420" y2="350" stroke="black" />
<text x="460" y="310" fill="black" >88</text>
<line x1="420" y1="350" x2="560" y2="420" stroke="black" />
<text x="495" y="380" fill="black" >102</text>
<line x1="420" y1="350" x2="350" y2="420" stroke="black" />
<text x="390" y="380" fill="black" >88</text>
<line x1="350" y1="420" x2="350" y2="280" stroke="black" />
<text x="355" y="345" fill="black" >106</text>
<line x1="350" y1="420" x2="210" y2="350" stroke="black" />
<text x="285" y="380" fill="black" >111</text>
<line x1="140" y1="350" x2="70" y2="210" stroke="black" />
<text x="110" y="275" fill="black" >133</text>
<line x1="350" y1="280" x2="490" y2="280" stroke="black" />
<text x="425" y="275" fill="black" >153</text>


</svg>
